<?xml version="1.0" standalone="no"?>
<!DOCTYPE svg PUBLIC "-//W3C//DTD SVG 20010904//EN"
 "http://www.w3.org/TR/2001/REC-SVG-20010904/DTD/svg10.dtd">
<svg version="1.0" xmlns="http://www.w3.org/2000/svg"
 width="568.000000pt" height="78.000000pt" viewBox="0 0 568.000000 78.000000"
 preserveAspectRatio="xMidYMid meet">

<g transform="translate(0.000000,78.000000) scale(0.100000,-0.100000)"
fill="#000000" stroke="none">
<path d="M2260 644 c0 -4 29 -47 65 -95 36 -49 65 -94 65 -100 0 -6 -24 -39
-53 -72 -92 -108 -102 -97 86 -97 l165 0 6 24 c3 13 9 32 13 42 5 14 1 13 -24
-6 -17 -12 -51 -26 -75 -31 -56 -11 -198 -11 -198 -1 0 5 27 39 60 78 32 38
59 74 59 79 1 6 -24 44 -54 85 -30 41 -55 78 -55 82 0 11 156 10 203 -1 22 -5
50 -20 65 -33 23 -21 24 -21 17 -3 -4 11 -10 28 -12 38 -5 15 -22 17 -169 17
-90 0 -164 -3 -164 -6z"/>
<path d="M3020 620 c-12 -23 1 -50 25 -50 21 0 36 -25 23 -38 -18 -18 -58 -15
-58 4 0 8 -4 12 -10 9 -22 -14 -8 -31 26 -33 65 -5 91 50 34 71 -18 7 -29 18
-28 27 4 21 39 25 54 6 11 -15 12 -15 16 2 4 15 -1 19 -33 21 -30 1 -40 -3
-49 -19z"/>
<path d="M3157 616 c-29 -27 -36 -73 -15 -94 28 -28 108 -3 108 34 0 4 -7 -2
-16 -14 -12 -17 -24 -22 -47 -20 -27 2 -33 8 -35 32 -7 56 82 107 95 55 4 -16
8 -17 14 -7 16 25 9 33 -34 36 -35 2 -49 -2 -70 -22z"/>
<path d="M738 578 c-46 -71 -38 -193 16 -237 9 -8 16 -9 16 -3 0 5 -6 15 -14
21 -20 17 -39 104 -31 143 4 18 15 48 26 66 21 36 9 44 -13 10z"/>
<path d="M1459 570 c29 -48 29 -151 0 -199 -27 -44 -18 -51 12 -10 45 64 36
186 -17 229 -12 11 -11 6 5 -20z"/>
<path d="M2726 581 c-20 -22 -36 -74 -36 -120 0 -37 36 -121 51 -121 5 0 0 17
-11 37 -26 49 -26 126 0 178 22 44 21 54 -4 26z"/>
<path d="M3879 570 c29 -48 29 -151 0 -199 -27 -44 -18 -51 12 -10 45 64 36
186 -17 229 -12 11 -11 6 5 -20z"/>
<path d="M4536 581 c-20 -22 -36 -74 -36 -120 0 -37 36 -121 51 -121 5 0 0 17
-11 37 -26 49 -26 126 0 178 22 44 21 54 -4 26z"/>
<path d="M5499 570 c29 -48 29 -151 0 -199 -27 -44 -18 -51 12 -10 45 64 36
186 -17 229 -12 11 -11 6 5 -20z"/>
<path d="M167 568 c-13 -14 -32 -49 -42 -79 -10 -30 -21 -58 -26 -63 -15 -16
-10 -28 9 -22 9 3 33 2 51 -4 25 -7 41 -6 62 6 16 8 29 19 29 24 0 14 -16 12
-29 -4 -9 -11 -20 -12 -49 -4 -20 6 -38 11 -39 12 -3 3 26 88 39 114 13 25 38
30 38 6 0 -9 6 -14 13 -11 6 2 12 12 12 23 0 29 -40 30 -68 2z"/>
<path d="M1336 581 c-4 -5 -2 -11 4 -13 6 -2 3 -26 -6 -62 -19 -72 -13 -106
19 -106 31 0 67 39 67 72 0 30 -23 53 -45 44 -13 -4 -14 1 -9 34 5 32 4 40 -9
40 -9 0 -18 -4 -21 -9z m57 -110 c-1 -36 -18 -61 -41 -61 -11 0 -13 8 -9 36
11 66 53 87 50 25z"/>
<path d="M3762 547 c-2 -23 -4 -64 -5 -92 -2 -49 -2 -50 28 -50 58 0 82 105
25 113 -19 3 -21 8 -16 38 6 28 4 34 -11 34 -14 0 -19 -9 -21 -43z m58 -69
c-1 -35 -19 -68 -39 -68 -14 0 -15 55 -1 81 17 31 40 24 40 -13z"/>
<path d="M4652 575 c-14 -11 -22 -26 -22 -46 0 -25 6 -33 34 -44 44 -19 49
-27 30 -54 -22 -31 -66 -25 -75 9 -5 21 -7 22 -13 8 -15 -44 -16 -50 -4 -45 7
2 22 1 33 -3 30 -11 71 7 84 37 16 36 5 61 -32 71 -42 11 -49 47 -13 63 31 14
56 -1 57 -35 0 -20 1 -21 9 -1 17 40 12 50 -28 53 -22 1 -47 -4 -60 -13z"/>
<path d="M2828 572 c20 -13 -16 -152 -43 -163 -14 -5 -6 -8 30 -7 28 0 42 2
32 5 -15 4 -17 11 -11 36 3 18 8 35 11 40 8 13 33 7 40 -9 5 -13 7 -13 14 -2
5 7 8 22 8 33 0 11 -3 14 -6 8 -2 -7 -16 -13 -29 -13 -21 0 -24 3 -18 28 9 38
17 44 55 40 26 -2 35 -9 39 -28 6 -24 7 -23 11 8 l6 32 -76 0 c-43 0 -70 -4
-63 -8z"/>
<path d="M5356 558 c-26 -37 -14 -158 15 -158 4 0 14 -3 22 -6 9 -3 25 4 36
15 26 26 29 115 5 149 -20 28 -58 28 -78 0z m64 -7 c16 -31 12 -117 -6 -136
-15 -15 -18 -15 -32 -1 -17 17 -23 106 -10 139 10 23 35 22 48 -2z"/>
<path d="M814 503 c-8 -8 -14 -19 -14 -25 0 -6 8 0 18 12 27 33 43 19 30 -28
-10 -38 -28 -66 -28 -44 0 7 -7 12 -16 12 -9 0 -14 -6 -12 -12 3 -8 26 -14 56
-15 44 -2 53 0 63 20 12 21 11 21 -8 5 -31 -29 -46 -23 -38 15 11 48 25 72 35
57 4 -7 13 -9 19 -6 21 14 1 24 -45 23 -25 0 -52 -7 -60 -14z"/>
<path d="M1071 501 c-17 -31 -13 -35 9 -10 21 26 26 15 10 -27 -15 -38 -4 -64
26 -64 22 0 23 -3 14 -20 -13 -23 -40 -27 -40 -5 0 8 -4 15 -10 15 -5 0 -10
-9 -10 -20 0 -30 55 -28 74 3 21 31 46 136 35 143 -10 6 -13 0 -29 -64 -8 -32
-15 -42 -28 -40 -12 3 -16 11 -13 28 8 56 6 74 -11 78 -9 2 -21 -6 -27 -17z"/>
<path d="M1626 513 c-11 -11 -6 -23 9 -23 8 0 15 4 15 9 0 13 -16 22 -24 14z"/>
<path d="M3967 513 c-4 -3 -7 -13 -7 -22 0 -11 3 -11 16 5 15 18 15 17 10 -12
-3 -18 -8 -43 -12 -58 -4 -16 -2 -26 5 -26 5 0 15 19 22 43 13 49 25 67 47 67
11 0 13 -8 8 -39 -3 -22 -9 -47 -13 -56 -4 -12 -2 -16 7 -13 7 2 19 25 27 50
13 45 38 67 55 50 5 -5 4 -21 -2 -36 -5 -15 -10 -36 -10 -47 0 -26 36 -25 50
1 13 25 2 26 -17 3 -13 -16 -14 -15 -7 12 12 50 10 67 -8 79 -13 8 -23 8 -35
0 -13 -8 -23 -8 -35 0 -13 8 -23 8 -38 -1 -12 -8 -21 -9 -25 -3 -7 11 -28 13
-38 3z"/>
<path d="M4227 508 c-24 -19 -39 -66 -27 -88 7 -14 21 -18 57 -18 45 1 63 10
63 33 -1 6 -7 1 -15 -9 -21 -28 -26 -17 -13 33 9 35 8 45 -3 52 -20 12 -42 11
-62 -3z m45 -38 c-3 -37 -17 -60 -38 -60 -19 0 -18 50 2 78 22 31 40 22 36
-18z"/>
<path d="M4354 503 c-8 -8 -14 -19 -14 -25 0 -6 8 0 18 12 27 33 43 19 30 -28
-10 -38 -28 -66 -28 -44 0 7 -7 12 -16 12 -9 0 -14 -6 -12 -12 3 -8 26 -14 56
-15 44 -2 53 0 63 20 12 21 11 21 -8 5 -31 -29 -46 -23 -38 15 11 48 25 72 35
57 4 -7 13 -9 19 -6 21 14 1 24 -45 23 -25 0 -52 -7 -60 -14z"/>
<path d="M1733 493 c26 -2 68 -2 95 0 26 2 4 3 -48 3 -52 0 -74 -1 -47 -3z"/>
<path d="M4774 482 c3 -5 -1 -33 -9 -63 -18 -64 -17 -59 -6 -59 4 0 12 15 17
32 6 19 17 34 28 36 16 4 18 -1 12 -32 -8 -40 11 -50 35 -18 13 16 12 16 -4 3
-18 -14 -18 -13 -12 22 7 35 6 37 -20 37 -24 0 -26 3 -21 25 5 19 2 25 -9 25
-9 0 -14 -4 -11 -8z"/>
<path d="M2018 463 c23 -2 61 -2 85 0 23 2 4 4 -43 4 -47 0 -66 -2 -42 -4z"/>
<path d="M3528 463 c23 -2 61 -2 85 0 23 2 4 4 -43 4 -47 0 -66 -2 -42 -4z"/>
<path d="M2974 452 c3 -5 -1 -33 -9 -63 -18 -64 -17 -59 -6 -59 4 0 12 15 17
32 6 19 17 34 28 36 16 4 18 -1 12 -32 -8 -40 11 -50 35 -18 13 16 12 16 -4 3
-18 -14 -18 -13 -12 22 7 35 6 37 -20 37 -24 0 -26 3 -21 25 5 19 2 25 -9 25
-9 0 -14 -4 -11 -8z"/>
<path d="M1733 443 c26 -2 68 -2 95 0 26 2 4 3 -48 3 -52 0 -74 -1 -47 -3z"/>
<path d="M286 424 c-18 -17 -19 -24 -10 -48 6 -17 59 -23 68 -8 3 5 -8 6 -25
4 -24 -4 -29 -1 -29 16 0 11 7 28 16 36 8 9 11 16 5 16 -5 0 -17 -7 -25 -16z"/>
<path d="M330 430 c0 -5 5 -10 10 -10 6 0 10 5 10 10 0 6 -4 10 -10 10 -5 0
-10 -4 -10 -10z"/>
<path d="M382 428 c-17 -17 -15 -58 4 -65 8 -3 27 0 40 6 19 8 25 17 22 38 -2
14 -10 29 -18 31 -13 4 -13 3 -2 -11 16 -19 0 -57 -23 -57 -23 0 -28 19 -11
45 17 26 9 34 -12 13z"/>
<path d="M466 424 c-5 -14 -4 -15 8 -5 13 11 14 7 10 -26 -4 -35 -3 -36 7 -13
6 14 15 33 20 43 8 14 5 17 -15 17 -13 0 -27 -7 -30 -16z"/>
<path d="M530 430 c0 -5 5 -10 10 -10 6 0 10 5 10 10 0 6 -4 10 -10 10 -5 0
-10 -4 -10 -10z"/>
<path d="M577 433 c-4 -3 -7 -11 -7 -17 0 -6 5 -4 11 4 8 11 9 5 4 -22 -4 -24
-2 -38 5 -38 5 0 10 8 10 18 0 10 7 28 16 40 14 21 14 22 -9 22 -13 0 -27 -3
-30 -7z"/>
<path d="M4876 424 c-5 -14 -4 -15 9 -4 13 11 15 9 13 -21 -3 -34 -3 -34 43
-36 41 -2 48 1 58 23 14 32 14 54 0 54 -6 0 -8 -7 -5 -16 7 -18 -10 -54 -26
-54 -7 0 -9 13 -5 35 3 19 2 35 -3 35 -5 0 -12 -16 -16 -35 -4 -22 -12 -35
-21 -35 -12 0 -14 8 -9 35 6 30 4 35 -12 35 -11 0 -23 -7 -26 -16z"/>
<path d="M5036 424 c-5 -14 -4 -15 8 -5 13 11 14 7 9 -24 -5 -32 -3 -37 12
-34 10 2 20 11 22 19 4 13 3 13 -6 0 -14 -21 -25 -6 -12 18 6 12 11 25 11 31
0 17 -37 13 -44 -5z"/>
<path d="M5126 424 c-5 -14 -4 -15 9 -4 23 19 26 8 12 -41 -11 -35 -17 -43
-33 -41 -14 3 -16 1 -8 -8 21 -21 49 5 61 54 5 25 8 48 5 51 -11 11 -40 4 -46
-11z"/>
<path d="M960 417 c0 -9 5 -17 11 -19 9 -3 8 -11 -1 -28 -12 -23 -12 -24 4
-11 10 8 16 25 14 39 -3 27 -28 44 -28 19z"/>
<path d="M1215 421 c-3 -5 0 -13 6 -16 6 -4 8 -18 4 -32 -4 -16 -2 -22 5 -18
13 8 13 75 1 75 -6 0 -12 -4 -16 -9z"/>
<path d="M1627 424 c-8 -8 1 -24 14 -24 5 0 9 7 9 15 0 15 -12 20 -23 9z"/>
<path d="M5235 421 c-3 -5 0 -13 6 -16 6 -4 8 -18 4 -32 -4 -16 -2 -22 5 -18
13 8 13 75 1 75 -6 0 -12 -4 -16 -9z"/>
<path d="M5590 415 c0 -9 5 -15 11 -13 6 2 11 8 11 13 0 5 -5 11 -11 13 -6 2
-11 -4 -11 -13z"/>
<path d="M3075 399 c-4 -6 -4 -13 -1 -16 3 -4 6 -1 6 5 0 7 4 12 8 12 4 0 6
-15 4 -34 l-4 -34 46 0 c25 0 48 3 51 8 3 4 -4 6 -16 3 -19 -5 -20 -3 -13 32
4 25 3 36 -3 32 -6 -4 -13 -20 -16 -37 -4 -18 -13 -30 -22 -30 -13 0 -15 7 -9
35 5 28 3 35 -9 35 -9 0 -19 -5 -22 -11z"/>
<path d="M3190 386 c0 -31 6 -34 13 -6 3 11 1 23 -4 26 -5 3 -9 -6 -9 -20z"/>
<path d="M3235 399 c-4 -6 -4 -13 -1 -16 3 -4 6 -1 6 5 0 7 4 12 10 12 6 0 6
-9 0 -26 -6 -14 -10 -30 -10 -35 0 -15 27 -10 41 9 13 16 12 16 -4 3 -18 -14
-18 -13 -12 22 6 30 4 37 -8 37 -9 0 -19 -5 -22 -11z"/>
<path d="M3325 399 c-4 -6 -5 -12 -2 -15 2 -3 7 2 10 11 7 17 1 20 -8 4z"/>
<path d="M3346 366 c-4 -24 -14 -50 -21 -56 -12 -10 -15 -10 -15 -1 0 7 -5 9
-10 6 -6 -4 -8 -11 -5 -16 11 -16 34 -10 49 14 19 29 32 97 18 97 -5 0 -13
-20 -16 -44z"/>
<path d="M2234 183 c0 -16 -4 -46 -9 -67 -6 -28 -5 -37 4 -32 6 4 11 15 11 25
0 20 19 41 36 41 9 0 11 -11 7 -36 -5 -31 -3 -36 12 -33 10 2 20 10 21 17 1 7
0 8 -3 2 -11 -23 -21 -8 -16 25 5 32 4 35 -19 35 -21 0 -25 4 -20 25 3 17 0
25 -9 25 -8 0 -14 -11 -15 -27z"/>
<path d="M2345 149 c-4 -6 -4 -13 -1 -16 3 -4 6 -1 6 5 0 7 4 12 8 12 4 0 6
-15 4 -34 l-4 -34 46 0 c25 0 48 3 51 8 3 4 -4 6 -16 3 -19 -5 -20 -3 -13 32
4 25 3 36 -3 32 -6 -4 -13 -20 -16 -37 -4 -18 -13 -30 -22 -30 -13 0 -15 7 -9
35 5 28 3 35 -9 35 -9 0 -19 -5 -22 -11z"/>
<path d="M2460 136 c0 -31 6 -34 13 -6 3 11 1 23 -4 26 -5 3 -9 -6 -9 -20z"/>
<path d="M2505 149 c-4 -6 -4 -13 -1 -16 3 -4 6 -1 6 5 0 7 4 12 10 12 6 0 6
-9 0 -26 -6 -14 -10 -30 -10 -35 0 -15 27 -10 41 9 13 16 12 16 -4 3 -18 -14
-18 -13 -12 22 6 30 4 37 -8 37 -9 0 -19 -5 -22 -11z"/>
<path d="M2595 149 c-4 -6 -5 -12 -2 -15 2 -3 7 2 10 11 7 17 1 20 -8 4z"/>
<path d="M2616 116 c-4 -24 -14 -50 -21 -56 -12 -10 -15 -10 -15 -1 0 7 -5 9
-10 6 -6 -4 -8 -11 -5 -16 11 -16 34 -10 49 14 19 29 32 97 18 97 -5 0 -13
-20 -16 -44z"/>
</g>
</svg>
